<svg width="45" height="45" viewBox="0 0 45 45" fill="none" xmlns="http://www.w3.org/2000/svg">
<path d="M28.3627 22.5047C28.3627 25.7303 25.7304 28.3626 22.5048 28.3626C19.2792 28.3626 16.6469 25.7303 16.6469 22.5047C16.6469 19.2791 19.2792 16.6468 22.5048 16.6468C25.7304 16.6468 28.3627 19.2791 28.3627 22.5047ZM22.5048 4.93534C24.9306 4.93534 27.3344 4.91337 29.7558 5.0496C32.5683 5.18583 35.0644 5.82743 37.121 7.88407C39.182 9.9451 39.8192 12.4368 39.9555 15.2493C40.0917 17.6751 40.0697 20.0789 40.0697 22.5003C40.0697 24.9261 40.0917 27.3299 39.9555 29.7513C39.8192 32.5638 39.1776 35.0599 37.121 37.1165C35.06 39.1775 32.5683 39.8147 29.7558 39.951C27.33 40.0872 24.9262 40.0652 22.5048 40.0652C20.0834 40.0652 17.6752 40.0872 15.2538 39.951C12.4413 39.8147 9.94523 39.1731 7.88859 37.1165C5.82755 35.0555 5.19035 32.5638 5.05411 29.7513C4.91788 27.3255 4.93985 24.9217 4.93985 22.5003C4.93985 20.0745 4.91788 17.6707 5.05411 15.2493C5.19034 12.4368 5.83195 9.94071 7.88859 7.88407C9.94962 5.82304 12.4413 5.18583 15.2538 5.0496C17.6752 4.90897 20.079 4.93534 22.5048 4.93534ZM13.4916 22.5047C13.4916 27.4925 17.517 31.5179 22.5048 31.5179C27.4926 31.5179 31.518 27.4925 31.518 22.5047C31.518 17.5169 27.4926 13.4915 22.5048 13.4915C17.517 13.4915 13.4916 17.5169 13.4916 22.5047ZM29.7821 13.1224C29.7821 14.2869 30.7226 15.2273 31.8871 15.2273C33.0517 15.2273 33.9921 14.2869 33.9921 13.1224C33.9921 11.9578 33.0517 11.0174 31.8871 11.0174C31.6106 11.017 31.3367 11.0712 31.0812 11.1769C30.8256 11.2826 30.5934 11.4376 30.3979 11.6331C30.2024 11.8287 30.0473 12.0609 29.9417 12.3164C29.836 12.5719 29.7818 12.8458 29.7821 13.1224Z" fill=""/>
</svg>
