<svg width="36" height="36" viewBox="0 0 36 36" fill="none" xmlns="http://www.w3.org/2000/svg">
<g clip-path="url(#clip0_5_252)">
<path d="M17.6 24.32L15.14 26.76C14.3914 27.499 13.3818 27.9133 12.33 27.9133C11.2781 27.9133 10.2686 27.499 9.51997 26.76C9.15502 26.3959 8.86548 25.9634 8.66792 25.4872C8.47037 25.011 8.36868 24.5005 8.36868 23.985C8.36868 23.4695 8.47037 22.959 8.66792 22.4828C8.86548 22.0067 9.15502 21.5741 9.51997 21.21L14.21 16.56C14.9586 15.8211 15.9681 15.4067 17.02 15.4067C18.0718 15.4067 19.0814 15.8211 19.83 16.56C20.3064 17.0333 20.6511 17.6227 20.83 18.27C20.9284 18.1888 21.0188 18.0984 21.1 18L22.39 16.72C22.1011 16.1188 21.7123 15.571 21.24 15.1C20.1166 13.9886 18.6002 13.3652 17.02 13.3652C15.4397 13.3652 13.9233 13.9886 12.8 15.1L8.09997 19.79C7.54636 20.3394 7.10697 20.9929 6.80713 21.7129C6.50728 22.4329 6.35291 23.2051 6.35291 23.985C6.35291 24.7649 6.50728 25.5372 6.80713 26.2571C7.10697 26.9771 7.54636 27.6306 8.09997 28.18C9.22329 29.2914 10.7397 29.9149 12.32 29.9149C13.9002 29.9149 15.4166 29.2914 16.54 28.18L20.19 24.56H19.69C18.9858 24.5724 18.283 24.4917 17.6 24.32Z" fill="#D72759"/>
<path d="M28.6101 7.82001C27.4867 6.70858 25.9703 6.08517 24.3901 6.08517C22.8098 6.08517 21.2934 6.70858 20.1701 7.82001L16.5201 11.44H17.0101C17.7194 11.4398 18.4256 11.534 19.1101 11.72L21.5701 9.28001C22.3187 8.54108 23.3282 8.12675 24.3801 8.12675C25.4319 8.12675 26.4415 8.54108 27.1901 9.28001C27.555 9.64413 27.8445 10.0767 28.0421 10.5528C28.2397 11.029 28.3413 11.5395 28.3413 12.055C28.3413 12.5705 28.2397 13.081 28.0421 13.5572C27.8445 14.0334 27.555 14.4659 27.1901 14.83L22.5001 19.48C21.7515 20.219 20.7419 20.6333 19.6901 20.6333C18.6382 20.6333 17.6287 20.219 16.8801 19.48C16.4036 19.0067 16.059 18.4173 15.8801 17.77C15.78 17.838 15.6862 17.915 15.6001 18L14.3101 19.28C14.5989 19.8812 14.9878 20.429 15.4601 20.9C16.5834 22.0114 18.0998 22.6349 19.6801 22.6349C21.2603 22.6349 22.7767 22.0114 23.9001 20.9L28.5901 16.25C29.1425 15.7 29.5808 15.0462 29.8799 14.3263C30.179 13.6064 30.3329 12.8346 30.3329 12.055C30.3329 11.2755 30.179 10.5036 29.8799 9.78369C29.5808 9.0638 29.1425 8.41006 28.5901 7.86001L28.6101 7.82001Z" fill="#D72759"/>
</g>
<defs>
<clipPath id="clip0_5_252">
<rect width="36" height="36" fill="white"/>
</clipPath>
</defs>
</svg>
