<svg width="24" height="17" viewBox="0 0 24 17" fill="none" xmlns="http://www.w3.org/2000/svg">
<path d="M14.2936 2.25705C14.0592 2.00263 13.9315 1.66613 13.9376 1.31843C13.9437 0.970733 14.0829 0.63899 14.3261 0.393093C14.5692 0.147196 14.8972 0.0063438 15.241 0.000209095C15.5848 -0.00592561 15.9175 0.123136 16.169 0.360206L23.2463 7.5181C23.4948 7.76975 23.6344 8.11086 23.6344 8.46652C23.6344 8.82218 23.4948 9.1633 23.2463 9.41494L16.169 16.5728C16.0475 16.7047 15.901 16.8105 15.7383 16.8838C15.5755 16.9572 15.3998 16.9966 15.2216 16.9998C15.0434 17.003 14.8664 16.9698 14.7012 16.9023C14.536 16.8348 14.3859 16.7344 14.2599 16.6069C14.1339 16.4795 14.0345 16.3277 13.9678 16.1605C13.901 15.9934 13.8683 15.8144 13.8714 15.6342C13.8746 15.454 13.9136 15.2763 13.9861 15.1117C14.0586 14.947 14.1632 14.7989 14.2936 14.676L19.1061 9.80863C12.4107 9.80863 8.65682 9.80863 1.96139 9.80863C1.60945 9.80863 1.27192 9.66723 1.02307 9.41553C0.774207 9.16384 0.634399 8.82247 0.634399 8.46652C0.634399 8.11057 0.774207 7.76921 1.02307 7.51751C1.27192 7.26582 1.60945 7.12442 1.96139 7.12442H19.1061L14.2936 2.25705Z" fill="#D72759"/>
</svg>
