<svg width="34" height="35" viewBox="0 0 34 35" fill="none" xmlns="http://www.w3.org/2000/svg">
<path d="M31.7431 0.925964H2.25684C1.77199 0.925964 1.307 1.11857 0.964156 1.46141C0.621316 1.80425 0.428711 2.26924 0.428711 2.75409V32.2432C0.428711 32.728 0.621316 33.193 0.964156 33.5358C1.307 33.8787 1.77199 34.0713 2.25684 34.0713H18.125V21.2378H13.8106V16.2344H18.125V12.5444C18.125 8.26378 20.7406 5.93221 24.56 5.93221C25.8488 5.92762 27.137 5.99334 28.4187 6.12909V10.6038H25.7778C23.6993 10.6038 23.2971 11.591 23.2971 13.0394V16.2344H28.25L27.6059 21.2378H23.2971V34.0741H31.7346C32.2193 34.0733 32.6838 33.8805 33.0265 33.5378C33.3692 33.1951 33.562 32.7306 33.5628 32.246V2.7569C33.5635 2.27302 33.3724 1.80859 33.0313 1.46538C32.6902 1.12217 32.227 0.928197 31.7431 0.925964Z" fill=""/>
</svg>
